<svg id="Capa_1" data-name="Capa 1" xmlns="http://www.w3.org/2000/svg" viewBox="0 0 100 100"><defs><style>.cls-1,.cls-2{fill:#fff;}.cls-2{font-size:12px;font-family:Montserrat-Bold, Montserrat;font-weight:700;letter-spacing:-0.02em;}</style></defs><path class="cls-1" d="M58.48,45.8a46.08,46.08,0,0,0-5.19,2.77A31.32,31.32,0,0,0,50,51.37a20.27,20.27,0,0,0-8.07-5.44,1.74,1.74,0,0,0-1.52.14c-.58.66.1,1.12.62,1.48,2.37,1.65,4.39,3.62,4.84,6.61a39.67,39.67,0,0,1-.4,14.89,8.5,8.5,0,0,1-4.4,5.74,10.88,10.88,0,0,0,7.64-1.6,2.1,2.1,0,0,1,2.6,0,10.93,10.93,0,0,0,7.32,1.67c0-.1,0-.22,0-.24A9.23,9.23,0,0,1,54.3,68,48.43,48.43,0,0,1,54,54.91,9.45,9.45,0,0,1,58.36,48a3.84,3.84,0,0,0,.9-.67,4.65,4.65,0,0,0,.48-1.14C59.31,46,58.77,45.66,58.48,45.8Z"/><path class="cls-1" d="M55.36,42.44a6.83,6.83,0,0,0,9.47-3.68C61.42,36.75,56,38.84,55.36,42.44Z"/><path class="cls-1" d="M35.18,38.73a7,7,0,0,0,9.54,3.74C43.9,38.83,38.9,36.84,35.18,38.73Z"/><path class="cls-1" d="M63.19,45a5.73,5.73,0,0,0,8.94.87A5.65,5.65,0,0,0,63.19,45Z"/><path class="cls-1" d="M34.69,34.29a5.7,5.7,0,0,0-8.23-3.46C26.65,33.68,31.36,36.48,34.69,34.29Z"/><path class="cls-1" d="M36.82,45c-2.24-2.75-6.82-2.35-8.95.77C30,48.5,34.76,48.09,36.82,45Z"/><path class="cls-1" d="M36.19,27.35a5.58,5.58,0,0,0-6.63-5.84C29,25.09,33.23,28.46,36.19,27.35Z"/><path class="cls-1" d="M65.35,34.27c3,1.95,7.3.19,8.28-3.37C70.81,28.84,65.92,31,65.35,34.27Z"/><path class="cls-1" d="M63.86,27.4a5.59,5.59,0,0,0,6.66-5.86C67.23,20.47,63.21,24.12,63.86,27.4Z"/><path class="cls-1" d="M51.43,30.8a5.67,5.67,0,0,0-2.5,8.51A5.65,5.65,0,0,0,51.43,30.8Z"/><path class="cls-1" d="M44.28,22.24a5.38,5.38,0,0,0-1.51-8.52A5.38,5.38,0,0,0,44.28,22.24Z"/><path class="cls-1" d="M77,38.72a5.51,5.51,0,0,0-8.73.7A5.58,5.58,0,0,0,77,38.72Z"/><path class="cls-1" d="M23.05,38.73a5.61,5.61,0,0,0,8.71.75A5.48,5.48,0,0,0,23.05,38.73Z"/><path class="cls-1" d="M57.26,13.66c-3.28,1.93-4,6-1.58,8.56C58.94,21.13,59.72,15.87,57.26,13.66Z"/><path class="cls-1" d="M51.8,27.64a5.56,5.56,0,0,0-2.31-8.37C47.28,21.51,48.58,26.68,51.8,27.64Z"/><path class="cls-1" d="M46.55,29.7c.14-3.31-2.44-5.57-6.34-5.63C39.31,27,42.78,30.12,46.55,29.7Z"/><path class="cls-1" d="M44.1,35.8c-.05-3.15-3.08-5.29-6.81-4.73A5.33,5.33,0,0,0,44.1,35.8Z"/><path class="cls-1" d="M56,35.87c2.84.88,7-1.63,6.75-4.75C59.28,30.33,55.64,32.91,56,35.87Z"/><path class="cls-1" d="M55.87,29.12c3.33,0,5.76-2.7,5.17-5.75C57.73,23.29,54.71,27,55.87,29.12Z"/><path class="cls-1" d="M23.8,34.14a4.56,4.56,0,0,0-7.13-1.55A4.65,4.65,0,0,0,23.8,34.14Z"/><path class="cls-1" d="M27.65,27.1a4.49,4.49,0,0,0-6.22-3.71C22,26.54,25,28.33,27.65,27.1Z"/><path class="cls-1" d="M75,43.47a4.67,4.67,0,0,0,7.25,1.07C81.06,41.89,77.43,41.32,75,43.47Z"/><path class="cls-1" d="M17.74,44.47A4.63,4.63,0,0,0,25,43.54,4.54,4.54,0,0,0,17.74,44.47Z"/><path class="cls-1" d="M50,47.3a2.36,2.36,0,0,0,2.43-2.48,2.46,2.46,0,0,0-2.4-2.42,2.51,2.51,0,0,0-2.51,2.45A2.42,2.42,0,0,0,50,47.3Z"/><path class="cls-1" d="M78.54,23.4a4.53,4.53,0,0,0-6.22,3.67A4.44,4.44,0,0,0,78.54,23.4Z"/><path class="cls-1" d="M50.64,15.66a4.69,4.69,0,0,0,0-7.33C48.23,9.86,48.17,13.57,50.64,15.66Z"/><path class="cls-1" d="M66.5,15.05c-2.61-.35-5.27,3.25-4.21,5.83A4.41,4.41,0,0,0,66.5,15.05Z"/><path class="cls-1" d="M61.38,49.73c.09,2.88,3,4.74,6.12,3.82A4.46,4.46,0,0,0,61.38,49.73Z"/><path class="cls-1" d="M36.9,20.94c.8.15,1-.17,1.08-.92a4.84,4.84,0,0,0-4.44-5A4.67,4.67,0,0,0,36.9,20.94Z"/><path class="cls-1" d="M37.68,49.41a4.59,4.59,0,0,0-5.17,4.11,4.76,4.76,0,0,0,6.07-2.75C38.93,49.83,38.65,49.49,37.68,49.41Z"/><path class="cls-1" d="M76.23,34.17a4.66,4.66,0,0,0,7.1-1.54C81.32,30.53,77.49,31.32,76.23,34.17Z"/><text class="cls-2" transform="translate(28.6 91.61)">CRUCE</text></svg>