<svg id="Capa_1" data-name="Capa 1" xmlns="http://www.w3.org/2000/svg" viewBox="0 0 100 100"><path d="M58.5,54.17A48,48,0,0,0,53.3,57,29.52,29.52,0,0,0,50,59.76a20.49,20.49,0,0,0-8.1-5.46,1.83,1.83,0,0,0-1.53.14c-.57.67.11,1.12.62,1.49,2.38,1.66,4.41,3.63,4.86,6.63a39.88,39.88,0,0,1-.4,14.93,8.48,8.48,0,0,1-4.41,5.75,10.84,10.84,0,0,0,7.66-1.6,2.09,2.09,0,0,1,2.6,0,10.93,10.93,0,0,0,7.34,1.67c0-.1,0-.22,0-.24a9.26,9.26,0,0,1-4.32-6.67A48.64,48.64,0,0,1,54,63.31a9.51,9.51,0,0,1,4.34-7,3.9,3.9,0,0,0,.91-.67,5.27,5.27,0,0,0,.48-1.14C59.34,54.4,58.8,54,58.5,54.17Z"/><path d="M55.37,50.8a6.85,6.85,0,0,0,9.5-3.69C61.45,45.1,56,47.2,55.37,50.8Z"/><path d="M35.14,47.08c1.24,3.75,5.91,5.54,9.57,3.75C43.88,47.19,38.87,45.2,35.14,47.08Z"/><path d="M63.23,53.36a5.74,5.74,0,0,0,9,.88A5.66,5.66,0,0,0,63.23,53.36Z"/><path d="M34.65,42.64a5.72,5.72,0,0,0-8.26-3.47C26.59,42,31.31,44.83,34.65,42.64Z"/><path d="M36.78,53.39c-2.24-2.75-6.83-2.36-9,.78C30,56.88,34.72,56.47,36.78,53.39Z"/><path d="M36.16,35.68a5.61,5.61,0,0,0-6.66-5.86C28.9,33.41,33.18,36.78,36.16,35.68Z"/><path d="M65.39,42.61c3,2,7.32.19,8.3-3.37C70.87,37.17,66,39.31,65.39,42.61Z"/><path d="M63.9,35.72a5.6,5.6,0,0,0,6.68-5.87C67.28,28.77,63.25,32.43,63.9,35.72Z"/><path d="M51.43,39.14a5.68,5.68,0,0,0-2.5,8.53A5.65,5.65,0,0,0,51.43,39.14Z"/><path d="M44.27,30.55C46.81,28.13,46,23.66,42.75,22A5.38,5.38,0,0,0,44.27,30.55Z"/><path d="M77.08,47.07a5.53,5.53,0,0,0-8.75.71A5.58,5.58,0,0,0,77.08,47.07Z"/><path d="M23,47.08a5.63,5.63,0,0,0,8.74.76A5.5,5.5,0,0,0,23,47.08Z"/><path d="M57.28,22c-3.29,1.94-4,6-1.58,8.59C59,29.44,59.74,24.16,57.28,22Z"/><path d="M51.81,36a5.58,5.58,0,0,0-2.32-8.4C47.27,29.82,48.58,35,51.81,36Z"/><path d="M46.55,38c.13-3.32-2.45-5.58-6.37-5.65C39.28,35.32,42.76,38.46,46.55,38Z"/><path d="M44.08,44.15C44,41,41,38.85,37.26,39.4A5.34,5.34,0,0,0,44.08,44.15Z"/><path d="M56,44.21c2.85.89,7-1.63,6.78-4.75C59.3,38.66,55.66,41.25,56,44.21Z"/><path d="M55.89,37.45c3.33,0,5.77-2.7,5.18-5.76C57.75,31.6,54.73,35.32,55.89,37.45Z"/><path d="M23.73,42.48a4.57,4.57,0,0,0-7.15-1.55A4.65,4.65,0,0,0,23.73,42.48Z"/><path d="M27.59,35.42a4.5,4.5,0,0,0-6.24-3.71C21.88,34.86,25,36.65,27.59,35.42Z"/><path d="M75.08,51.83a4.68,4.68,0,0,0,7.27,1.08C81.15,50.26,77.5,49.68,75.08,51.83Z"/><path d="M17.65,52.84a4.64,4.64,0,0,0,7.27-.93A4.55,4.55,0,0,0,17.65,52.84Z"/><path d="M50,55.68a2.37,2.37,0,0,0,2.44-2.48,2.48,2.48,0,0,0-2.41-2.44,2.51,2.51,0,0,0-2.51,2.47A2.41,2.41,0,0,0,50,55.68Z"/><path d="M78.62,31.71a4.55,4.55,0,0,0-6.24,3.69A4.47,4.47,0,0,0,78.62,31.71Z"/><path d="M50.65,24a4.69,4.69,0,0,0,0-7.34C48.23,18.14,48.17,21.86,50.65,24Z"/><path d="M66.55,23.34c-2.62-.35-5.29,3.26-4.22,5.85A4.42,4.42,0,0,0,66.55,23.34Z"/><path d="M61.41,58.11c.09,2.89,3,4.75,6.14,3.84A4.49,4.49,0,0,0,61.41,58.11Z"/><path d="M36.87,29.25c.8.14,1-.18,1.08-.92a4.85,4.85,0,0,0-4.45-5.06A4.69,4.69,0,0,0,36.87,29.25Z"/><path d="M37.65,57.79a4.61,4.61,0,0,0-5.19,4.13,4.76,4.76,0,0,0,6.08-2.76C38.9,58.21,38.62,57.87,37.65,57.79Z"/><path d="M76.3,42.52A4.68,4.68,0,0,0,83.42,41C81.41,38.86,77.57,39.66,76.3,42.52Z"/></svg>