<svg id="Capa_1" data-name="Capa 1" xmlns="http://www.w3.org/2000/svg" viewBox="0 0 100 50"><defs><style>.cls-1{font-size:12px;font-family:Montserrat-Bold, Montserrat;font-weight:700;letter-spacing:-0.02em;}</style></defs><path d="M29.24,27.08a24.75,24.75,0,0,0-2.59,1.39A15.3,15.3,0,0,0,25,29.87a10.15,10.15,0,0,0-4-2.72.88.88,0,0,0-.76.07c-.29.33.05.56.31.74a5,5,0,0,1,2.43,3.31,19.86,19.86,0,0,1-.21,7.45,4.23,4.23,0,0,1-2.2,2.87,5.47,5.47,0,0,0,3.83-.8,1,1,0,0,1,1.29,0,5.5,5.5,0,0,0,3.67.84c0-.05,0-.11,0-.13a4.6,4.6,0,0,1-2.16-3.32A24.7,24.7,0,0,1,27,31.64a4.75,4.75,0,0,1,2.17-3.47,2,2,0,0,0,.46-.33,2.13,2.13,0,0,0,.23-.58C29.66,27.2,29.39,27,29.24,27.08Z"/><path d="M27.68,25.4a3.42,3.42,0,0,0,4.74-1.84C30.72,22.55,28,23.6,27.68,25.4Z"/><path d="M17.58,23.54a3.48,3.48,0,0,0,4.78,1.88C22,23.6,19.45,22.6,17.58,23.54Z"/><path d="M31.6,26.68a2.87,2.87,0,0,0,4.48.43A2.84,2.84,0,0,0,31.6,26.68Z"/><path d="M17.34,21.33a2.86,2.86,0,0,0-4.12-1.74C13.32,21,15.67,22.42,17.34,21.33Z"/><path d="M18.4,26.69a2.84,2.84,0,0,0-4.47.39A2.87,2.87,0,0,0,18.4,26.69Z"/><path d="M18.09,17.85a2.79,2.79,0,0,0-3.32-2.92A2.77,2.77,0,0,0,18.09,17.85Z"/><path d="M32.68,21.31a2.83,2.83,0,0,0,4.15-1.68A2.85,2.85,0,0,0,32.68,21.31Z"/><path d="M31.94,17.87a2.79,2.79,0,0,0,3.33-2.93A2.79,2.79,0,0,0,31.94,17.87Z"/><path d="M25.71,19.58a2.83,2.83,0,0,0-1.24,4.26A2.82,2.82,0,0,0,25.71,19.58Z"/><path d="M22.14,15.29A2.68,2.68,0,0,0,21.38,11,2.69,2.69,0,0,0,22.14,15.29Z"/><path d="M38.52,23.54a2.76,2.76,0,0,0-4.37.35A2.79,2.79,0,0,0,38.52,23.54Z"/><path d="M11.51,23.54a2.81,2.81,0,0,0,4.36.38A2.75,2.75,0,0,0,11.51,23.54Z"/><path d="M28.63,11a2.75,2.75,0,0,0-.79,4.29C29.48,14.74,29.86,12.1,28.63,11Z"/><path d="M25.9,18a2.78,2.78,0,0,0-1.16-4.2A2.8,2.8,0,0,0,25.9,18Z"/><path d="M23.28,19c.07-1.66-1.23-2.79-3.18-2.82C19.65,17.68,21.39,19.24,23.28,19Z"/><path d="M22.05,22.08c0-1.58-1.54-2.65-3.41-2.37A2.67,2.67,0,0,0,22.05,22.08Z"/><path d="M28,22.11c1.42.44,3.52-.81,3.38-2.37C29.64,19.34,27.83,20.63,28,22.11Z"/><path d="M27.94,18.74a2.49,2.49,0,0,0,2.59-2.88C28.87,15.82,27.36,17.67,27.94,18.74Z"/><path d="M11.89,21.25a2.28,2.28,0,0,0-3.57-.78A2.33,2.33,0,0,0,11.89,21.25Z"/><path d="M13.82,17.73a2.26,2.26,0,0,0-3.12-1.86A2.27,2.27,0,0,0,13.82,17.73Z"/><path d="M37.52,25.92a2.33,2.33,0,0,0,3.62.53A2.27,2.27,0,0,0,37.52,25.92Z"/><path d="M8.86,26.42A2.31,2.31,0,0,0,12.48,26,2.26,2.26,0,0,0,8.86,26.42Z"/><path d="M25,27.84a1.19,1.19,0,0,0,1.21-1.25A1.23,1.23,0,0,0,25,25.38a1.25,1.25,0,0,0-1.25,1.23A1.21,1.21,0,0,0,25,27.84Z"/><path d="M39.28,15.87a2.27,2.27,0,0,0-3.11,1.84A2.22,2.22,0,0,0,39.28,15.87Z"/><path d="M25.32,12a2.35,2.35,0,0,0,0-3.67A2.28,2.28,0,0,0,25.32,12Z"/><path d="M33.26,11.69a2.28,2.28,0,0,0-2.11,2.92A2.21,2.21,0,0,0,33.26,11.69Z"/><path d="M30.7,29.05A2.24,2.24,0,0,0,33.76,31,2.24,2.24,0,0,0,30.7,29.05Z"/><path d="M18.45,14.64c.39.08.51-.08.53-.46a2.41,2.41,0,0,0-2.22-2.52A2.33,2.33,0,0,0,18.45,14.64Z"/><path d="M18.83,28.89A2.29,2.29,0,0,0,16.25,31a2.38,2.38,0,0,0,3-1.38C19.46,29.1,19.32,28.93,18.83,28.89Z"/><path d="M38.13,21.26a2.33,2.33,0,0,0,3.55-.77A2.23,2.23,0,0,0,38.13,21.26Z"/><text class="cls-1" transform="translate(45.31 29.15)">CRUCE</text></svg>